<svg width="159" height="159" viewBox="0 0 159 159" fill="none" xmlns="http://www.w3.org/2000/svg">    <g clip-path="url(#clip0)">        <path d="M79.0635 60.6791H15.1597L24.8534 143.371H69.3695L79.0635 60.6791Z" fill="#AE8372"/>        <path d="M72.5786 115.998L75.8546 88.0523H18.3685L21.6445 115.998H72.5786Z" fill="#E0B9A8"/>        <path d="M60.57 127.171C55.9274 131.619 54.5625 138.173 56.9472 144.127C59.4331 150.334 65.5053 154.868 71.9733 156.21C76.158 157.079 82.4186 156.769 82.5136 151.171C82.5776 147.385 80.3979 143.689 78.706 140.438L74.2267 128.687L60.57 127.171Z" fill="#FFAC55"/>        <path d="M132.013 93.2372C138.394 92.4493 144.336 95.5322 147.445 101.143C150.685 106.992 150.363 114.563 147.316 120.424C145.345 124.216 141.149 128.873 136.75 125.41C133.776 123.067 132.289 119.042 130.838 115.677L124.56 104.781L132.013 93.2372Z" fill="#FFAC55"/>        <path opacity="0.1" d="M78.7055 140.438L74.2262 128.687L60.5698 127.17C58.35 129.298 56.8818 131.906 56.2119 134.7C57.6761 136.456 59.3826 138.287 61.286 140.017C67.5609 145.723 73.9439 148.616 80.2576 148.617C80.2585 148.617 80.2595 148.617 80.2604 148.617C80.92 148.617 81.5718 148.581 82.2178 148.518C81.5749 145.67 79.9992 142.924 78.7055 140.438Z" fill="black"/>        <path d="M72.1265 103.488C58.6742 104.445 55.6202 118.795 58.6593 124.249C61.6983 129.703 75.4537 146.723 87.2923 138.183C99.131 129.644 89.9711 116.498 89.9711 116.498L72.1265 103.488Z" fill="#FFAC55"/>        <path opacity="0.1" d="M132.013 93.2372L124.559 104.78L130.837 115.677C131.947 118.251 133.08 121.208 134.882 123.506C136.395 121.985 137.677 120.197 138.699 118.162C142.44 110.708 141.935 101.416 140.606 94.6188C138.017 93.3711 135.066 92.8602 132.013 93.2372Z" fill="black"/>        <path d="M106.354 87.2306C115.596 77.4083 128.648 84.1087 130.955 89.91C133.262 95.7114 137.763 117.127 123.664 120.908C109.565 124.689 105.163 109.282 105.163 109.282L106.354 87.2306Z" fill="#FFAC55"/>        <path d="M83.1438 2.42352C74.6457 2.42352 67.7568 9.31271 67.7568 17.8105C67.7568 19.2347 67.9543 20.6117 68.3164 21.9206C63.0899 22.347 58.9801 26.7214 58.9801 32.0581C58.9801 37.6775 63.5352 42.2329 69.1549 42.2329C74.5534 42.2329 78.9672 38.0281 79.3061 32.7153C80.533 33.0305 81.819 33.1982 83.1441 33.1982C91.6422 33.1982 98.5311 26.309 98.5311 17.8112C98.5308 9.31271 91.6416 2.42352 83.1438 2.42352Z" fill="#E0B9A8"/>        <path opacity="0.1" d="M64.796 34.3205C64.796 28.9837 68.9055 24.6096 74.1324 24.183C73.7703 22.874 73.5727 21.4967 73.5727 20.0729C73.5727 11.5747 80.4619 4.68585 88.9598 4.68585C89.829 4.68585 90.6799 4.76131 91.51 4.90013C89.1011 3.3359 86.2297 2.42413 83.1435 2.42413C74.6454 2.42413 67.7562 9.31332 67.7562 17.8111C67.7562 19.2353 67.9537 20.6123 68.3158 21.9212C63.0893 22.3476 58.9795 26.722 58.9795 32.0588C58.9795 37.4756 63.2135 41.9025 68.5521 42.214C66.2609 40.3479 64.796 37.5058 64.796 34.3205Z" fill="black"/>        <path d="M81.7324 53.4691H12.4908L9.25958 63.9104H84.9636L81.7324 53.4691Z" fill="#735642"/>        <path opacity="0.1" d="M25.4161 63.9104L28.6474 53.4691H12.4908L9.25958 63.9104H15.5385L24.8534 143.371H41.01L31.6951 63.9104H25.4161Z" fill="black"/>        <path opacity="0.1" d="M117.948 90.2199C116.888 87.4297 115.304 84.9288 113.338 82.8103C110.925 83.5174 108.534 84.9139 106.354 87.2303L105.163 109.282C105.163 109.282 108.926 122.449 120.637 121.449C120.906 120.89 121.164 120.324 121.397 119.744C123.973 113.334 124.039 106.247 121.586 99.7901L117.948 90.2199Z" fill="black"/>        <path opacity="0.1" d="M72.1265 103.488C68.9512 103.714 66.3556 104.687 64.2821 106.112C64.6917 108.993 65.6386 111.801 67.118 114.363L72.2377 123.23C76.036 129.809 82.3895 134.447 89.6237 136.181C97.8001 127.736 89.9715 116.498 89.9715 116.498L72.1265 103.488Z" fill="black"/>        <path d="M90.0849 84.9288L80.6219 89.4237C72.7669 93.1546 69.7657 102.794 74.114 110.324L79.2334 119.191C84.2702 127.914 95.1623 131.305 104.261 126.983C113.36 122.662 117.613 112.077 114.035 102.661L110.397 93.0906C107.308 84.9617 97.9399 81.1976 90.0849 84.9288Z" fill="#FFAC55"/>        <path d="M56.5627 32.0584C56.5627 39.0051 62.2144 44.6564 69.161 44.6564C74.8701 44.6564 79.7588 40.8137 81.2727 35.5232C81.895 35.5884 82.5217 35.6214 83.15 35.6214C92.971 35.6214 100.96 27.6313 100.96 17.8108C100.96 7.99039 92.971 0 83.15 0C81.3572 0 79.5855 0.26645 77.8837 0.792828C76.6052 1.18815 75.8887 2.54525 76.2841 3.82377C76.6794 5.1023 78.0365 5.82059 79.315 5.4234C80.5529 5.04081 81.8432 4.84703 83.15 4.84703C90.2981 4.84703 96.1138 10.6623 96.1138 17.8108C96.1138 24.9593 90.2981 30.7746 83.15 30.7746C82.0534 30.7746 80.9649 30.638 79.915 30.3681C79.2156 30.1883 78.4728 30.3296 77.8887 30.7535C77.3042 31.1777 76.9393 31.8401 76.8934 32.5609C76.6341 36.6257 73.2379 39.8097 69.1607 39.8097C64.8867 39.8097 61.4095 36.3325 61.4095 32.0588C61.4095 28.0539 64.5326 24.6618 68.5194 24.337C69.2393 24.278 69.8958 23.901 70.3091 23.3091C70.7228 22.7172 70.8507 21.9709 70.6582 21.275C70.3452 20.143 70.1865 18.9779 70.1865 17.8111C70.1865 15.0721 71.0333 12.4517 72.6354 10.2332C73.419 9.14842 73.1749 7.63326 72.0898 6.84975C71.0048 6.06655 69.4899 6.31064 68.7064 7.39538C66.504 10.445 65.3397 14.0467 65.3397 17.8108C65.3397 18.5474 65.386 19.2844 65.477 20.0154C60.3104 21.6094 56.5627 26.4664 56.5627 32.0584Z" fill="black"/>        <path d="M42.5614 85.6291H34.3757C33.0373 85.6291 31.9522 86.7139 31.9522 88.0526C31.9522 89.3914 33.0373 90.4762 34.3757 90.4762H42.5614C43.8999 90.4762 44.985 89.3914 44.985 88.0526C44.985 86.7139 43.8999 85.6291 42.5614 85.6291Z" fill="black"/>        <path d="M89.0517 82.7395L79.5887 87.2343C79.1533 87.4412 78.7319 87.6704 78.3179 87.911L80.8473 66.3339H84.9702C85.7397 66.3339 86.4639 65.9681 86.921 65.3485C87.3778 64.7287 87.5133 63.929 87.2856 63.1936L84.0544 52.7524C83.7401 51.7375 82.8016 51.0456 81.7392 51.0456H12.4977C11.4353 51.0456 10.4968 51.7378 10.1826 52.7524L6.95132 63.1936C6.72369 63.929 6.85909 64.729 7.31591 65.3485C7.77272 65.9681 8.49661 66.3339 9.26677 66.3339H13.3896C13.3896 66.3339 15.9684 88.3337 15.9684 88.3346L18.1239 106.723L22.4532 143.654C22.5964 144.874 23.6311 145.795 24.8603 145.795H55.0334C57.8895 152.107 64.2554 157.083 71.4878 158.584C72.8017 158.856 74.1721 159 75.4516 159C81.3125 159 84.8609 156.089 84.9432 151.212C84.9944 148.175 83.91 145.349 82.6429 142.758C84.7838 142.39 86.8198 141.518 88.7176 140.149C92.0861 137.719 94.2649 134.738 95.222 131.265C95.4769 131.274 95.7325 131.279 95.9893 131.279C99.2296 131.279 102.365 130.57 105.308 129.173C108.489 127.662 111.213 125.427 113.3 122.676C115.197 123.513 117.224 123.934 119.368 123.934C120.95 123.934 122.595 123.706 124.299 123.249C126.572 122.639 128.529 121.614 130.161 120.193C131.368 122.811 132.873 125.436 135.258 127.314C136.72 128.465 138.298 129.049 139.949 129.049C145.165 129.049 148.558 123.304 149.473 121.542C153.016 114.725 153.055 106.257 149.571 99.9687C146.353 94.1602 140.527 90.6923 133.986 90.6923C133.928 90.6923 133.868 90.6973 133.809 90.6979C133.609 90.0687 133.408 89.5026 133.214 89.015C132.285 86.6794 130.125 84.3515 127.287 82.6289C126.143 81.9345 124.653 82.2988 123.958 83.4432C123.263 84.5869 123.628 86.0776 124.772 86.7722C126.67 87.9241 128.179 89.47 128.71 90.806C129.969 93.9707 130.658 97.5191 131.036 100.895C131.408 104.212 131.366 107.655 130.374 110.867C130.025 111.997 129.558 113.091 128.96 114.111C128.905 114.205 128.848 114.298 128.791 114.39C128.784 114.399 128.781 114.41 128.775 114.42C127.445 116.53 125.561 117.892 123.043 118.567C120.341 119.292 117.952 119.26 115.803 118.464C115.823 118.419 115.84 118.374 115.86 118.329C117.705 114.181 118.179 109.489 117.26 105.048C116.859 103.11 116.107 101.275 115.407 99.4311L112.67 92.2292C111.997 90.4597 111.025 88.7933 109.819 87.335C111.824 85.7558 114.068 84.868 116.513 84.6894C117.848 84.5919 118.851 83.4305 118.753 82.096C118.656 80.7616 117.495 79.7561 116.16 79.8551C112.501 80.1225 109.091 81.5697 106.182 84.0612C103.367 82.1532 99.9979 81.0597 96.4719 81.0597C93.8947 81.0597 91.3988 81.6246 89.0517 82.7395ZM133.578 115.764C133.602 115.717 133.628 115.673 133.652 115.626C133.685 115.558 133.716 115.487 133.748 115.419C133.819 115.274 133.887 115.129 133.953 114.982C133.994 114.893 134.034 114.804 134.073 114.714C135.293 111.893 135.799 108.804 135.912 105.748C136.016 102.933 135.789 100.107 135.344 97.3278C135.32 97.1716 135.116 95.5871 135.037 95.5806C139.359 95.925 143.155 98.3883 145.332 102.317C148.05 107.223 147.987 113.892 145.172 119.306C143.674 122.189 141.526 124.202 139.949 124.202C139.405 124.202 138.851 123.974 138.256 123.506C136.086 121.797 134.79 118.771 133.544 115.832C133.556 115.809 133.566 115.786 133.578 115.764ZM15.5454 61.4868H12.5536L14.2849 55.8923H79.9523L81.6836 61.4868H78.6918H15.5454ZM53.5785 140.948H27.0161L24.3755 118.421H55.2064C55.1918 118.698 55.1797 118.975 55.1775 119.248C55.1623 121.576 55.6126 123.747 56.5492 125.428C56.5523 125.434 56.5563 125.441 56.5597 125.447C56.5976 125.514 56.6383 125.585 56.6808 125.66C56.9128 126.063 57.1777 126.494 57.4737 126.947C54.1651 130.909 52.7925 135.928 53.5785 140.948ZM58.0522 109.267C57.7411 109.769 57.4538 110.286 57.1908 110.814C56.7485 111.702 56.3768 112.629 56.0765 113.575H23.8072L22.8784 105.651L21.0996 90.4758H24.6811C26.0196 90.4758 27.1046 89.3911 27.1046 88.0523C27.1046 86.7136 26.0196 85.6288 24.6811 85.6288H20.5313L18.2692 66.3336H75.9674L73.7054 85.6288H52.2549C50.9165 85.6288 49.8314 86.7136 49.8314 88.0523C49.8314 89.3911 50.9165 90.4758 52.2549 90.4758H73.1371L72.8514 92.913C72.3399 93.6419 71.8887 94.408 71.4974 95.2018C71.4902 95.2164 71.4828 95.2309 71.4756 95.2452C70.5586 97.1178 70.0036 99.1274 69.7856 101.198C69.7807 101.246 69.7748 101.293 69.7704 101.341C66.5603 101.915 63.9402 103.205 61.8493 104.909C61.8384 104.918 61.8272 104.927 61.8164 104.936C60.3282 106.156 59.0649 107.634 58.0522 109.267ZM75.4507 154.153C74.4973 154.153 73.4675 154.044 72.4725 153.837C66.4973 152.598 61.2891 148.432 59.2037 143.225C59.1308 143.043 59.0677 142.86 59.0028 142.677C58.977 142.591 58.9482 142.507 58.9134 142.425C57.6041 138.476 58.219 134.306 60.4928 130.994C60.4028 131.125 62.3443 133.099 62.526 133.293C63.389 134.211 64.2871 135.097 65.2225 135.942C67.4317 137.937 69.8661 139.731 72.5504 141.035C72.5619 141.041 72.5734 141.046 72.5849 141.052C72.7771 141.145 72.9706 141.235 73.1653 141.322C73.1815 141.33 73.1979 141.337 73.2141 141.344C74.4817 141.911 75.7895 142.353 77.1276 142.631C78.6182 145.453 80.144 148.368 80.0971 151.129C80.0831 151.957 80.0455 154.153 75.4507 154.153ZM85.8816 136.218C84.1115 137.495 82.2756 138.115 80.266 138.115C76.6851 138.114 73.2836 136.205 70.5266 134.074C70.5213 134.07 70.5164 134.066 70.5108 134.062C67.7174 131.967 65.2644 129.323 63.1464 126.558C63.1228 126.528 63.0992 126.497 63.076 126.466C62.0288 125.095 60.972 123.684 60.4425 122.021C59.9264 120.399 59.9254 118.677 60.213 117.012C60.6105 114.709 61.5729 112.455 63.0114 110.61C63.0148 110.605 63.0185 110.6 63.0219 110.596C64.7818 108.377 67.2603 106.857 70.0179 106.239C70.0223 106.238 70.026 106.237 70.0303 106.236C69.9499 106.253 70.6853 108.613 70.7552 108.805C71.0977 109.744 71.5166 110.658 72.016 111.524C72.0179 111.528 72.0197 111.532 72.0219 111.535C73.7299 114.494 75.4053 117.473 77.1512 120.409C77.6055 121.173 78.0866 121.918 78.6213 122.628C78.6726 122.696 78.7232 122.765 78.7754 122.832C81.5299 126.407 85.2984 129.008 89.6132 130.318C89.7355 130.356 89.8594 130.39 89.9827 130.426C90.1147 130.463 90.2442 130.505 90.3765 130.54C89.6358 132.71 88.1508 134.581 85.8816 136.218ZM107.63 92.8015C109.33 96.1849 110.431 99.9823 111.776 103.522C111.777 103.524 111.778 103.528 111.779 103.531C114.155 109.796 112.464 117.097 107.648 121.737C106.351 122.986 104.854 124.022 103.228 124.794C100.94 125.88 98.5048 126.432 95.9884 126.432C89.9324 126.432 84.428 123.126 81.3392 117.978L76.2199 109.112C75.2137 107.371 74.6395 105.403 74.5581 103.393C74.3606 98.4439 77.1993 93.735 81.6687 91.6121L91.1317 87.1173C92.8233 86.3139 94.6198 85.9064 96.471 85.9064C101.198 85.9064 105.535 88.6321 107.63 92.8015Z" fill="black"/>    </g>    <defs>        <clipPath id="clip0">            <rect width="159" height="159" fill="white"/>        </clipPath>    </defs></svg>