<svg width="159" height="159" viewBox="0 0 159 159" fill="none" xmlns="http://www.w3.org/2000/svg">    <path fill-rule="evenodd" clip-rule="evenodd" d="M154.337 40.1758C148.177 20.1222 125.502 8.45712 111.566 9.78905C112.843 11.2505 114.002 12.9815 115.017 15.0106C118.686 22.3504 125.371 51.0542 122.881 56.9524C122.701 57.3773 122.511 57.8067 122.305 58.2384C122.305 58.2384 133.76 56.5593 140.313 57.0835C146.866 57.6077 160.497 60.2293 154.337 40.1758Z" fill="#FFF3DB"/>    <path fill-rule="evenodd" clip-rule="evenodd" d="M122.88 56.9524C125.371 51.0542 118.686 22.3504 115.016 15.0106C114.002 12.9815 112.843 11.2505 111.565 9.78905C99.6732 -3.81228 77.4654 5.93702 65.1941 16.1522C66.8856 17.2397 68.3204 18.9027 69.6414 21.0308C79.0066 36.1141 88.3718 51.1974 97.7369 66.2806C98.6086 67.6846 99.2005 69.2212 99.3027 70.7056C114.52 69.724 119.654 63.8 122.304 58.2384C122.51 57.8067 122.701 57.3773 122.88 56.9524Z" fill="#FFF3DB"/>    <path fill-rule="evenodd" clip-rule="evenodd" d="M97.7372 66.2806C88.372 51.1974 79.0069 36.1141 69.6417 21.0308C68.3203 18.9027 66.8856 17.2397 65.1944 16.1522C63.4112 15.0059 61.3427 14.4994 58.821 14.7625C48.1127 15.8789 37.5436 19.8722 28.7079 28.7079C19.8722 37.5436 15.8792 48.1127 14.7625 58.821C14.4995 61.3429 15.006 63.4112 16.1522 65.1943C17.2397 66.8859 18.9027 68.3206 21.0309 69.642C36.1141 79.0071 51.1974 88.3723 66.2807 97.7375C67.6846 98.6092 69.2212 99.2011 70.7056 99.3033C72.2739 99.411 73.7841 98.9719 75.0182 97.7375C82.5912 90.1645 90.1642 82.5915 97.7369 75.0188C98.9713 73.7844 99.4104 72.2742 99.3027 70.7059C99.2008 69.2212 98.6086 67.6846 97.7372 66.2806Z" fill="#FFF3DB"/>    <path fill-rule="evenodd" clip-rule="evenodd" d="M66.2806 97.7372C51.1974 88.372 36.1141 79.0069 21.0309 69.6417C18.903 68.3203 17.2397 66.8856 16.1522 65.194C5.93704 77.4653 -3.81227 99.6731 9.78906 111.565C11.2505 112.843 12.9815 114.002 15.0106 115.016C22.3504 118.686 51.0542 125.371 56.9524 122.881C57.3773 122.701 57.8068 122.51 58.2384 122.305C63.8 119.654 69.724 114.52 70.7056 99.3033C69.2212 99.2008 67.6846 98.6086 66.2806 97.7372Z" fill="#FFF3DB"/>    <path fill-rule="evenodd" clip-rule="evenodd" d="M56.9524 122.88C51.0542 125.371 22.3503 118.686 15.0106 115.016C12.9815 114.001 11.2505 112.843 9.78904 111.565C8.4571 125.501 20.1222 148.176 40.1754 154.336C60.229 160.497 57.6074 146.865 57.0832 140.312C56.5589 133.758 58.2381 122.304 58.2381 122.304C57.8067 122.51 57.3772 122.701 56.9524 122.88Z" fill="#FFF3DB"/>    <path fill-rule="evenodd" clip-rule="evenodd" d="M42.8182 83.1694C35.5558 78.66 28.2933 74.1508 21.0309 69.6417C18.903 68.3203 17.2397 66.8856 16.1522 65.194C5.93704 77.4653 -3.81227 99.6731 9.78906 111.565C10.4617 112.153 11.1912 112.716 11.9806 113.251C12.9849 110.947 13.1526 108.89 16.0056 106.037C20.356 101.687 22.8541 103.581 27.2048 99.2303C31.5553 94.8798 29.6616 92.3818 34.012 88.0313C37.5016 84.5414 39.7997 85.0687 42.8182 83.1694Z" fill="#FFD4B5"/>    <path fill-rule="evenodd" clip-rule="evenodd" d="M16.1522 65.194C17.2397 66.8856 18.9027 68.3203 21.0309 69.6417C28.2933 74.1508 35.5558 78.66 42.8182 83.1694C43.5626 82.7008 44.3505 82.0847 45.2113 81.2238C49.5617 76.8734 47.668 74.3753 52.0185 70.0249C56.3689 65.6744 58.867 67.5682 63.2174 63.2177C67.5679 58.8673 65.6742 56.3689 70.0249 52.0185C74.3754 47.668 76.8734 49.5617 81.2239 45.2113C82.0844 44.3507 82.7008 43.5626 83.1694 42.8182C78.6603 35.5557 74.1508 28.2933 69.6417 21.0308C68.3203 18.9027 66.8856 17.2397 65.1944 16.1522C63.4112 15.0059 61.3426 14.4994 58.821 14.7625C48.1127 15.8789 37.5436 19.8722 28.7079 28.7079C19.8722 37.5436 15.8792 48.1127 14.7625 58.821C14.4991 61.3426 15.0059 63.4109 16.1522 65.194Z" fill="#FFD4B5"/>    <path fill-rule="evenodd" clip-rule="evenodd" d="M69.6417 21.0305C74.1509 28.293 78.66 35.5554 83.1695 42.8179C85.0697 39.7997 84.5415 37.5016 88.0311 34.0117C92.3815 29.6613 94.8799 31.555 99.2303 27.2045C103.581 22.8541 101.687 20.3557 106.038 16.0056C108.891 13.1526 110.947 12.9849 113.251 11.9806C112.716 11.1912 112.153 10.4617 111.565 9.78905C99.6732 -3.81228 77.4654 5.93702 65.1941 16.1522C66.8856 17.2394 68.3204 18.9027 69.6417 21.0305Z" fill="#FFD4B5"/>    <path d="M53.8427 36.2998C52.1278 36.2998 50.736 34.9092 50.736 33.1943C50.736 31.4795 52.1257 30.0889 53.8405 30.0889H53.8427C55.5575 30.0889 56.9481 31.4795 56.9481 33.1943C56.9481 34.9092 55.5575 36.2998 53.8427 36.2998Z" fill="white"/>    <path d="M41.1702 59.7772C39.4553 59.7772 38.0635 58.3865 38.0635 56.6717C38.0635 54.9569 39.4529 53.5662 41.1677 53.5662H41.1702C42.885 53.5662 44.2757 54.9569 44.2757 56.6717C44.2757 58.3865 42.8853 59.7772 41.1702 59.7772Z" fill="white"/>    <path d="M106.199 43.3803C104.484 43.3803 103.092 41.9897 103.092 40.2748C103.092 38.56 104.481 37.1693 106.196 37.1693H106.199C107.913 37.1693 109.304 38.56 109.304 40.2748C109.304 41.99 107.914 43.3803 106.199 43.3803Z" fill="#FFD4B5"/>    <path d="M74.3366 73.0068C72.6217 73.0068 71.2299 71.6161 71.2299 69.9013C71.2299 68.1865 72.6196 66.7958 74.3344 66.7958H74.3366C76.0514 66.7958 77.442 68.1865 77.442 69.9013C77.442 71.6161 76.0514 73.0068 74.3366 73.0068Z" fill="#FFD4B5"/>    <path d="M18.6245 95.3661C16.9096 95.3661 15.5178 93.9755 15.5178 92.2607C15.5178 90.5458 16.9071 89.1552 18.622 89.1552H18.6245C20.3393 89.1552 21.7299 90.5458 21.7299 92.2607C21.7299 93.9755 20.3396 95.3661 18.6245 95.3661Z" fill="white"/>    <path d="M47.8779 109.341C46.1631 109.341 44.7712 107.95 44.7712 106.235C44.7712 104.52 46.1609 103.13 47.8757 103.13H47.8779C49.5927 103.13 50.9834 104.52 50.9834 106.235C50.9834 107.95 49.5927 109.341 47.8779 109.341Z" fill="#FFD4B5"/>    <path d="M33.9646 136.837C32.2497 136.837 30.8578 135.446 30.8578 133.731C30.8578 132.016 32.2475 130.626 33.9624 130.626H33.9646C35.6794 130.626 37.07 132.016 37.07 133.731C37.07 135.446 35.6794 136.837 33.9646 136.837Z" fill="#FFD4B5"/>    <path d="M136.945 39.0947C135.23 39.0947 133.839 37.7041 133.839 35.9893C133.839 34.2744 135.228 32.8838 136.943 32.8838H136.945C138.66 32.8838 140.051 34.2744 140.051 35.9893C140.051 37.7041 138.66 39.0947 136.945 39.0947Z" fill="#FFD4B5"/>    <path d="M157.306 39.2633C154.293 29.4565 147.284 20.6143 137.571 14.3655C129.513 9.18156 120.399 6.33757 112.843 6.59657C109.77 3.50756 106.017 1.48217 101.614 0.55767C89.0654 -2.07701 74.3423 5.06898 64.825 12.4668C63.0586 11.76 60.9748 11.415 58.4989 11.6728C45.795 12.9976 35.033 17.9899 26.5119 26.511C17.9908 35.0318 12.9982 45.7941 11.6737 58.498C11.4153 60.9746 11.7603 63.0586 12.4671 64.8253C5.06896 74.343 -2.0761 89.0626 0.558577 101.612C1.48307 106.016 3.50846 109.769 6.59747 112.842C6.33847 120.397 9.18215 129.511 14.3655 137.569C20.6146 147.283 29.4571 154.292 39.2642 157.305C42.9411 158.434 46.1223 159 48.8402 159C52.0777 158.999 54.6574 158.197 56.6309 156.591C61.3655 152.737 60.7224 145.895 60.2966 141.367C60.2534 140.909 60.2125 140.472 60.1795 140.064C59.8401 135.819 60.5242 128.751 61.0981 124.322C66.6116 121.259 72.1371 115.53 73.5846 102.078C74.9349 101.694 76.1684 100.979 77.2149 99.9327L99.9333 77.214C100.979 76.1678 101.694 74.934 102.078 73.584C115.529 72.1359 121.259 66.6116 124.323 61.0969C128.755 60.5224 135.815 59.8392 140.065 60.1786C140.473 60.2112 140.91 60.2525 141.368 60.2957C145.896 60.7221 152.737 61.3649 156.592 56.63C159.547 53 159.78 47.3192 157.306 39.2633ZM52.7096 151.774C50.8905 153.255 46.763 153.111 41.0877 151.367C24.8058 146.366 14.8198 129.807 13.069 117.501C13.254 117.598 13.4329 117.699 13.6217 117.793C17.4641 119.715 26.6237 122.39 35.896 124.299C43.088 125.781 48.7176 126.523 52.7336 126.523C53.3984 126.523 54.0142 126.5 54.5906 126.46C54.1453 130.518 53.6562 136.41 53.9882 140.559C54.0226 140.994 54.0664 141.46 54.1124 141.949C54.4145 145.161 54.871 150.015 52.7096 151.774ZM55.7449 120.019C54.6288 120.491 49.3064 120.72 37.1491 118.216C28.4861 116.432 19.7597 113.918 16.3999 112.238C10.9386 109.507 7.74525 105.614 6.63691 100.336C4.67394 90.9855 9.80697 78.9232 16.3089 70.0416C17.3315 70.9304 18.4026 71.6642 19.3932 72.2794L64.643 100.375C65.5517 100.939 66.4678 101.379 67.3777 101.708C66.0017 113.999 60.9997 117.8 55.7449 120.019ZM95.5412 72.8222L72.8231 95.5406C71.3744 96.9893 68.9102 95.7142 67.919 95.0981L22.6692 67.0029C18.2747 64.2741 17.5647 61.887 17.8511 59.142C19.024 47.8915 23.4158 38.3907 30.9037 30.9028C38.3913 23.4149 47.8924 19.0231 59.1429 17.8502C59.4814 17.8151 59.8137 17.7946 60.1426 17.7946C62.481 17.7946 64.6114 18.815 67.0035 22.6677L95.099 67.9175C95.7145 68.9097 96.9902 71.3732 95.5412 72.8222ZM101.714 67.3771C101.384 66.4672 100.94 65.5505 100.376 64.6418L72.28 19.392C71.6651 18.4017 70.931 17.3306 70.0422 16.3086C78.9229 9.80669 90.9848 4.67397 100.338 6.63632C105.616 7.74466 109.509 10.938 112.239 16.399C113.919 19.7591 116.433 28.4855 118.217 37.1485C120.721 49.3051 120.491 54.6282 120.02 55.7443C117.801 60.9997 113.999 66.0017 101.714 67.3771ZM151.774 52.7091C150.015 54.8698 145.162 54.414 141.949 54.1121C141.461 54.0661 140.995 54.0224 140.56 53.9879C136.408 53.6547 130.522 54.1432 126.461 54.5894C126.747 50.5334 126.026 44.2768 124.3 35.8957C122.39 26.6237 119.715 17.4642 117.794 13.6214C117.699 13.4329 117.598 13.2541 117.502 13.0693C129.811 14.8205 146.367 24.8052 151.368 41.0871C153.112 46.7621 153.256 50.8896 151.774 52.7091Z" fill="#FFA96B"/></svg>