<?xml version="1.0" standalone="no"?>
<!DOCTYPE svg PUBLIC "-//W3C//DTD SVG 20010904//EN"
 "http://www.w3.org/TR/2001/REC-SVG-20010904/DTD/svg10.dtd">
<svg version="1.0" xmlns="http://www.w3.org/2000/svg"
 width="600.000000pt" height="600.000000pt" viewBox="0 0 600.000000 600.000000"
 preserveAspectRatio="xMidYMid meet">
<metadata>
Created by potrace 1.11, written by Peter Selinger 2001-2013
</metadata>
<g transform="translate(0.000000,600.000000) scale(0.100000,-0.100000)"
fill="#000000" stroke="none">
<path d="M789 5995 c-3 -2 -22 -6 -42 -9 -46 -6 -131 -30 -183 -53 -47 -20
-44 -19 -71 -28 -13 -4 -23 -11 -23 -16 0 -5 -5 -9 -11 -9 -20 0 -135 -85
-194 -145 -107 -106 -183 -236 -232 -392 l-28 -88 -2 -2230 c-2 -2191 -2
-2231 17 -2314 67 -281 236 -493 497 -625 40 -20 73 -34 73 -32 0 3 16 -2 37
-10 103 -44 71 -43 2408 -41 l2220 2 90 28 c251 79 443 238 555 462 28 55 61
138 73 185 l22 85 0 2225 c0 1224 -4 2243 -8 2265 -45 231 -174 437 -360 574
-75 55 -201 115 -302 143 l-80 23 -2226 3 c-1224 1 -2228 0 -2230 -3z"/>
</g>
</svg>
